<svg version="1.1" id="Layer_1" xmlns="http://www.w3.org/2000/svg" xmlns:xlink="http://www.w3.org/1999/xlink" x="0px" y="0px"
	 width="100%" viewBox="0 0 1024 1024" enable-background="new 0 0 1024 1024" xml:space="preserve">
<path fill="#000101" opacity="1.000000" stroke="none" 
	d="
M1025.000000,165.000000 
	C1025.000000,391.693512 1025.000000,618.387024 1024.622925,845.690918 
	C1023.526794,851.067993 1022.886353,855.848145 1022.076782,860.599426 
	C1008.906006,937.897522 948.067078,1002.455322 871.670837,1020.042053 
	C862.866699,1022.068848 853.894348,1023.365051 845.000000,1025.000000 
	C622.306458,1025.000000 399.612946,1025.000000 176.369507,1024.612305 
	C169.286133,1023.015564 162.633453,1022.250000 156.237305,1020.530273 
	C74.892830,998.659119 24.559872,946.540466 4.876230,864.747498 
	C3.232297,857.916321 2.275859,850.919739 1.000002,844.000000 
	C1.000000,617.973145 1.000000,391.946259 1.365000,165.288269 
	C2.458840,159.729584 3.106348,154.788437 3.928744,149.876556 
	C15.929960,78.197746 73.464684,19.017874 144.848129,4.884665 
	C151.237976,3.619539 157.616318,2.296268 164.000000,1.000000 
	C395.693512,1.000000 627.387024,1.000000 859.707520,1.381063 
	C867.722900,2.869563 875.173279,3.667614 882.490051,5.132600 
	C950.973572,18.844507 1007.835083,75.981560 1021.092102,144.268097 
	C1022.432312,151.171432 1023.699158,158.089020 1025.000000,165.000000 
M318.657501,547.854004 
	C321.428925,554.451416 324.178436,561.058044 326.975098,567.644775 
	C363.854614,654.504333 400.767120,741.349854 437.526337,828.260254 
	C438.955048,831.638123 440.885071,832.034302 443.956055,832.029968 
	C490.122559,831.965210 536.289368,831.934143 582.455444,832.087646 
	C586.332703,832.100525 587.861389,830.668945 589.267761,827.301514 
	C601.134460,798.888733 613.187744,770.553711 625.215515,742.208313 
	C670.465332,635.569763 715.727173,528.936279 760.983276,422.300385 
	C792.519958,347.991394 824.056458,273.682281 855.578613,199.367142 
	C856.251892,197.779861 856.750549,196.118500 857.438049,194.190613 
	C855.875854,194.083023 855.053650,193.976959 854.231445,193.976807 
	C799.231567,193.966217 744.231628,193.991211 689.231934,193.889328 
	C686.166321,193.883636 684.885742,195.028824 683.853455,197.714462 
	C666.057739,244.011612 648.142883,290.262939 630.323608,336.551056 
	C593.432678,432.380402 556.583374,528.225830 519.714050,624.063477 
	C517.814087,629.002197 515.887634,633.930786 513.678528,639.624268 
	C512.597656,637.107117 511.825958,635.463562 511.175568,633.773315 
	C483.090179,560.786804 455.048309,487.783600 426.930298,414.809692 
	C399.170044,342.764221 371.309906,270.757202 343.605713,198.690216 
	C342.278656,195.238098 340.700928,193.872314 336.836578,193.881927 
	C282.670380,194.016541 228.503693,193.967697 174.337128,193.977432 
	C172.589417,193.977753 170.841736,194.126480 168.380447,194.238480 
	C218.527740,312.298370 268.412659,429.740509 318.657501,547.854004 
z"/>
<path fill="#FEFEFE" opacity="1.000000" stroke="none" 
	d="
M1.000002,844.468628 
	C2.275859,850.919739 3.232297,857.916321 4.876230,864.747498 
	C24.559872,946.540466 74.892830,998.659119 156.237305,1020.530273 
	C162.633453,1022.250000 169.286133,1023.015564 175.909790,1024.612305 
	C117.738426,1025.000000 59.476849,1025.000000 1.000000,1025.000000 
	C1.000000,964.979248 1.000000,904.958313 1.000002,844.468628 
z"/>
<path fill="#FEFEFE" opacity="1.000000" stroke="none" 
	d="
M845.468628,1025.000000 
	C853.894348,1023.365051 862.866699,1022.068848 871.670837,1020.042053 
	C948.067078,1002.455322 1008.906006,937.897522 1022.076782,860.599426 
	C1022.886353,855.848145 1023.526794,851.067993 1024.622925,846.150635 
	C1025.000000,905.593872 1025.000000,965.187744 1025.000000,1025.000000 
	C965.312622,1025.000000 905.624939,1025.000000 845.468628,1025.000000 
z"/>
<path fill="#FEFEFE" opacity="1.000000" stroke="none" 
	d="
M163.531342,1.000000 
	C157.616318,2.296268 151.237976,3.619539 144.848129,4.884665 
	C73.464684,19.017874 15.929960,78.197746 3.928744,149.876556 
	C3.106348,154.788437 2.458840,159.729584 1.365000,164.828552 
	C1.000000,110.406540 1.000000,55.813087 1.000000,1.000000 
	C55.020695,1.000000 109.041687,1.000000 163.531342,1.000000 
z"/>
<path fill="#FEFEFE" opacity="1.000000" stroke="none" 
	d="
M1025.000000,164.531342 
	C1023.699158,158.089020 1022.432312,151.171432 1021.092102,144.268097 
	C1007.835083,75.981560 950.973572,18.844507 882.490051,5.132600 
	C875.173279,3.667614 867.722900,2.869563 860.167236,1.381063 
	C914.926819,1.000000 969.853577,1.000000 1025.000000,1.000000 
	C1025.000000,55.354031 1025.000000,109.708359 1025.000000,164.531342 
z"/>
<path fill="#03FAFE" opacity="1.000000" stroke="none" 
	d="
M318.477539,547.518311 
	C268.412659,429.740509 218.527740,312.298370 168.380447,194.238480 
	C170.841736,194.126480 172.589417,193.977753 174.337128,193.977432 
	C228.503693,193.967697 282.670380,194.016541 336.836578,193.881927 
	C340.700928,193.872314 342.278656,195.238098 343.605713,198.690216 
	C371.309906,270.757202 399.170044,342.764221 426.930298,414.809692 
	C455.048309,487.783600 483.090179,560.786804 511.175568,633.773315 
	C511.825958,635.463562 512.597656,637.107117 513.678528,639.624268 
	C515.887634,633.930786 517.814087,629.002197 519.714050,624.063477 
	C556.583374,528.225830 593.432678,432.380402 630.323608,336.551056 
	C648.142883,290.262939 666.057739,244.011612 683.853455,197.714462 
	C684.885742,195.028824 686.166321,193.883636 689.231934,193.889328 
	C744.231628,193.991211 799.231567,193.966217 854.231445,193.976807 
	C855.053650,193.976959 855.875854,194.083023 857.438049,194.190613 
	C856.750549,196.118500 856.251892,197.779861 855.578613,199.367142 
	C824.056458,273.682281 792.519958,347.991394 760.983276,422.300385 
	C715.727173,528.936279 670.465332,635.569763 625.215515,742.208313 
	C613.187744,770.553711 601.134460,798.888733 589.267761,827.301514 
	C587.861389,830.668945 586.332703,832.100525 582.455444,832.087646 
	C536.289368,831.934143 490.122559,831.965210 443.956055,832.029968 
	C440.885071,832.034302 438.955048,831.638123 437.526337,828.260254 
	C400.767120,741.349854 363.854614,654.504333 326.975098,567.644775 
	C324.178436,561.058044 321.428925,554.451416 318.477539,547.518311 
z"/>
</svg>